<mxfile host="app.diagrams.net" modified="2023-12-06T12:15:11.064Z" agent="Mozilla/5.0 (Windows NT 10.0; Win64; x64) AppleWebKit/537.36 (KHTML, like Gecko) Chrome/112.0.0.0 Safari/537.36" version="22.1.5" etag="m9dUhw1U9Gl3h3HIR5bp" type="github">
  <diagram name="第 1 页" id="lnOhFzAYYs2ZENECsHOH">
    <mxGraphModel>
      <root>
        <mxCell id="0" />
        <mxCell id="1" parent="0" />
      </root>
    </mxGraphModel>
  </diagram>
</mxfile>
